<svg version="1.0" xmlns="http://www.w3.org/2000/svg" width="1584" height="1706.667" viewBox="0 0 1188 1280"><g fill="#03a9f4"><path d="M967 1c0 3.3-8.2 55.5-8.8 56.1-.4.3-3.9 1.6-7.8 2.8-4 1.1-11.3 4.1-16.3 6.7-5.4 2.6-9.6 4.2-10.4 3.7-.6-.4-11.1-8.1-23.1-17.1l-21.9-16.3-12.4 12.3c-6.8 6.8-12.1 12.8-11.9 13.4.2.6 7.8 11.1 16.9 23.3l16.6 22.3-4.3 8.6c-2.4 4.8-5.4 11.8-6.6 15.7-1.2 3.8-2.5 7.7-2.9 8.5-.6 1.1-7.9 2.5-29 5.5l-28.1 3.9v17.8c0 17.6 0 17.8 2.3 18.2 1.2.3 14 2.2 28.4 4.2l26.2 3.8 2.6 8.3c1.4 4.6 4.6 12.3 7 17 2.4 4.7 4.1 9.1 3.8 9.7-.4.6-8 10.9-17 22.8-9 12-16.3 22.1-16.3 22.5 0 .5 5.5 6.3 12.3 13l12.2 12.2 23.3-17.3 23.2-17.3 8.3 4.2c4.5 2.4 12 5.5 16.7 7 4.7 1.6 8.6 2.9 8.7 3 .2.1 2.1 12.5 4.3 27.6 2.2 15.1 4.2 28 4.5 28.6.5 1.6 35.5 1.9 35.5.4 0-1.4 8.1-56.5 8.3-56.7.1 0 4-1.3 8.7-2.9 4.7-1.5 12.3-4.7 16.9-7l8.3-4.3 23.2 17.3 23.1 17.4 12.3-12.2c6.7-6.7 12.2-12.6 12.2-13.1s-7.6-11.1-17-23.6l-16.9-22.6 4.3-8.4c2.4-4.7 5.6-12.4 7.1-17.3 1.5-4.8 3.1-8.7 3.5-8.7 1 0 48.5-6.8 52.8-7.5l3.2-.6v-35.6l-26.7-3.7c-14.8-2.1-27.5-4-28.5-4.2-1-.3-2.6-3.5-4.3-8.7-1.4-4.5-4.6-12.2-7-17l-4.5-8.8 16.6-22c9.1-12.1 16.7-22.5 17-23.2.2-.7-5.2-6.8-12-13.6l-12.4-12.3-21.8 16.4c-12.1 9-22.4 16.7-23.1 17.1-.6.4-5.3-1.3-10.5-3.8-5.1-2.5-12.4-5.5-16.3-6.7-3.8-1.1-7.4-2.4-7.8-2.8-.6-.5-8.7-52.6-8.7-56.1 0-.5-7.3-.9-18-.9-11.5 0-18 .4-18 1zm32.2 103.1c2.9.6 9.5 3.1 14.7 5.6 17.1 8.2 29.8 23.7 34.7 42.3 2.1 8 2.4 23.4.5 31-5.7 23.2-23.4 41.6-46.7 48.6-8.2 2.5-26.6 2.5-34.9 0-18.7-5.7-33.3-18-41.5-35.1-4.8-10.2-6.3-16.7-6.4-28 0-19.3 7.6-36.5 22.1-49.5 6.5-5.7 19.4-12.6 27.5-14.5 6.6-1.7 23-1.9 30-.4z"/><path d="M688 164.6c-47.7 2.8-97 13-140 28.9-14.9 5.5-34.8 14-36.3 15.4-.7.7 93.7 165.7 96.3 168.4.4.5 6.1-1 12.6-3.3 31.2-10.9 58.7-15.4 93.9-15.3 18.5 0 25.9.4 37.5 2.2 34.7 5.3 60.4 13.5 90.5 29 78.2 40.2 134.5 116.8 148.9 202.6l1.2 7 97.8.3 97.8.2-.6-3.7c-.3-2.1-.8-6.7-1.1-10.3-6-62.2-30.1-133.5-64.5-190.5-18.2-30.2-46.1-66.4-66.8-86.8-5.7-5.6-6-5.8-8.8-4.6-1.6.7-3 1.4-3.2 1.5-.2.1-2.5 15-5.1 33l-4.7 32.9-48.1.3c-46.8.2-48.1.2-48.6-1.7-.2-1.1-2.4-15.5-4.8-32.1-3.2-22.8-4.6-30-5.5-29.6-.7.3-12.2 8.6-25.4 18.6-13.2 10-24.6 18.3-25.3 18.6-.7.2-16.4-14.8-35.1-33.5l-33.8-33.8 19.5-26.1c19.2-25.5 19.6-26.1 16.9-26.6-1.5-.3-15.5-2.4-31.2-4.6-15.7-2.3-29.1-4.3-29.7-4.5-1-.3-1.3-6-1.3-23.9v-23.4l-3.2-.6c-15.6-2.9-68.6-5.2-89.8-4zm-258.2 93.2c-42.2 31.5-80.6 71.3-109.9 114.2-18.7 27.3-37.3 62.4-50.7 95.9-.3.8 1.6-.2 4.3-2.3l4.9-3.7 33.8 33.8c21.2 21.2 33.6 34.3 33.3 35.2-.3.7-8.9 12.6-19.1 26.3-10.3 13.7-18.5 25-18.3 25.2.2.2 13.5 2.2 29.4 4.5 16 2.3 30.2 4.4 31.8 4.7l2.7.6-.2 48.1-.3 48.1-31.7 4.6c-17.5 2.5-31.8 4.7-31.8 5 0 .3 8.6 12 19 26 10.5 14 19 25.7 19 26 0 .3-15.3 15.8-33.9 34.4l-33.9 33.9-4.2-3.3c-2.2-1.8-4.3-3.1-4.5-2.9-.7.8 13.4 32.1 21.6 47.9 27.6 53 64 99.2 109.3 138.8 12.5 10.9 40.4 32.7 41 32 2.7-3.1 97.5-169.2 96.9-169.7-10.4-8.6-22.9-20-29-26.5-66.4-70.2-92.5-167.7-69.8-261.1 5.3-22 12.1-40.3 21.9-59.8 18.4-36.2 41.7-65 74.9-92.9l2.9-2.3-47.9-83c-26.4-45.7-48.4-83.8-48.9-84.7-.8-1.5-2.5-.6-12.6 7z"/><path d="M146.6 499.2c-2.2 15-4.3 28-4.7 28.9-.4.8-3.6 2.3-7.1 3.3-3.5.9-10.9 3.9-16.6 6.7l-10.4 5-23-17.2-22.9-17.2-12.6 12.6-12.6 12.6 17.2 23L71.2 580l-5.1 10.2c-2.8 5.7-5.8 13.2-6.8 16.7-1.2 4.4-2.3 6.6-3.7 7.2-1.2.4-14.1 2.5-28.8 4.5L0 622.4v35.5l3.2.6c1.8.3 14.6 2.1 28.3 4.1 13.8 2 25.3 3.9 25.6 4.2.4.4 1.6 3.8 2.7 7.7 1.2 3.8 4.2 11.2 6.7 16.3 3.3 6.8 4.3 9.8 3.6 11-.5.9-8.2 11.4-17 23.2l-16.2 21.4 12.3 12.3c6.8 6.8 12.6 12.3 13 12.3.5 0 11-7.6 23.4-16.9l22.5-17 7.9 4.1c4.3 2.3 12 5.5 17.1 7.2l9.4 3.1 4 28.3 4 28.3 17.7.2c17 .2 17.7.1 18.2-1.8.2-1.1 2.1-14 4.2-28.6l3.8-26.7 7.5-2.3c4.2-1.2 11.9-4.4 17.2-7l9.6-4.7 22.7 16.9c12.5 9.3 23 16.9 23.4 16.9.4 0 6.2-5.5 12.9-12.3l12.2-12.2-17-22.8c-9.3-12.5-16.9-23.1-16.9-23.4 0-.4 2-4.7 4.4-9.7 2.5-5 5.5-12.6 6.7-16.9 1.3-4.2 2.6-7.7 3.1-7.7.4 0 13-1.8 27.9-4 15-2.2 27.6-4 28.1-4 .4 0 .8-8 .8-17.8v-17.9l-26.7-3.7c-14.8-2.1-27.8-4-28.9-4.3-1.7-.3-2.5-1.9-3.9-6.9-.9-3.5-4.1-11.2-6.9-17l-5.2-10.6 17.3-23.1 17.4-23.1-12.3-12.3c-6.8-6.8-12.6-12.3-12.9-12.3-.4 0-10.5 7.3-22.5 16.3-12.1 8.9-22.5 16.6-23.2 17.1-.7.4-3.3-.5-6.5-2.3-6.4-3.6-19-8.7-24.1-9.6-2.1-.4-3.9-1.3-4.1-1.9-.2-.6-2-12.4-4-26.1-2-13.8-3.8-26.2-4.1-27.8l-.6-2.7h-35.3l-3.9 27.2zm39.4 77.9c29.2 7.8 49.4 35.9 47.7 66.4-1.8 31.6-24.6 56.7-55.8 61.6-20.5 3.2-40.8-3.8-56.1-19.1-13.6-13.7-19.7-30.3-18.5-50.1.9-16.7 6.9-30 18.8-42 16.7-16.9 40.2-23 63.9-16.8zm806.6 104.1c-.2.7-1.4 6.7-2.6 13.3-10.7 57.3-42.9 114.4-86.5 153.7-51.6 46.4-112.9 71.3-181 73.5-36.2 1.1-69.3-3.9-102.5-15.6-6.3-2.2-11.7-3.7-12.1-3.3-1.2 1.3-96.9 167.4-96.9 168.1 0 .4 6.2 3.3 13.7 6.5 44.8 19.2 87.5 30.4 137.3 36.1 29 3.4 78.3 3 109-.8l9.5-1.2.5-24 .5-24 31.2-4.5c17.1-2.5 31.4-4.8 31.8-5.2.4-.3-8-12.2-18.6-26.3l-19.3-25.6 34.1-34.1 34.1-34.1 24.9 18.5c13.6 10.3 25.4 18.8 26.2 19 1.1.2 2.4-6.2 6-31.2l4.7-31.5 48.1-.3 48.1-.2.6 3.2c.3 1.8 2.4 15.9 4.6 31.3 2.2 15.4 4.2 29 4.5 30.2.3 1.2 1.8 2.6 3.7 3.3l3.3 1.1 10-10.3c32.2-33.2 59.6-72.8 81.5-117.3 25.5-51.9 39.9-102.5 46.5-163.8l.6-5.7h-97.6c-77.2 0-97.6.3-97.9 1.2z"/><path d="M966.7 946.2c-.4 1.8-2.2 14.8-4.2 28.8s-3.7 25.5-3.8 25.6c-.1.1-4 1.3-8.7 2.9-4.7 1.5-12.3 4.6-16.9 7l-8.3 4.3-23.3-17.3-23.2-17.3-12.6 12.6-12.5 12.5 17.4 23.1 17.3 23.2-3.9 7.5c-4 7.8-7.1 15.5-9 22.6-.6 2.4-1.4 4.3-1.9 4.3-.4 0-13.3 1.8-28.6 4s-27.8 4-27.9 4c-.6 0 .5 35.5 1.1 35.7.4.1 12.1 1.8 25.8 3.8 13.8 1.9 26.2 3.8 27.7 4.1 2.3.4 2.9 1.5 5.2 8.7 1.4 4.5 4.5 12.1 7 17l4.5 8.7-16.5 22.1c-9.1 12.2-16.7 22.6-17 23.3-.2.6 5.2 6.7 12 13.5l12.4 12.3 21.8-16.4c12.1-9 22.4-16.7 23.1-17.1.6-.4 5.3 1.3 10.5 3.8 5.1 2.5 12.5 5.5 16.3 6.7 3.9 1.1 7.3 2.4 7.7 2.7.6.5 8.8 53.5 8.8 56.5 0 .3 8.1.6 18 .6 13.7 0 18-.3 18-1.3.1-3.9 8-55.1 8.7-55.7.4-.4 4-1.7 7.9-2.9 4-1.1 11.3-4.1 16.3-6.7l9.1-4.5 3.3 2.2c1.7 1.3 12.1 9 23.1 17.2l19.8 14.9 12.4-12.3c6.8-6.8 12.2-12.9 12-13.6-.3-.7-8-11.1-17.1-23.3l-16.5-22 4.4-8.7c2.4-4.9 5.4-12.2 6.7-16.3 1.2-4.1 2.8-8 3.3-8.6.6-.6 13.6-2.8 28.9-5l27.7-3.9v-35.4l-3.2-.6c-6.4-1.1-51.1-7.5-52.3-7.5-.8 0-2.5-3.6-4.1-8.6-1.5-4.7-4.6-12.4-7-17.1-2.4-4.8-4-9.1-3.7-9.7.4-.6 8-10.9 17-22.8 9-12 16.3-22.1 16.3-22.5 0-.5-5.5-6.3-12.3-13.1l-12.2-12.2-23.3 17.4-23.3 17.3-9.2-4.7c-5.1-2.5-12.7-5.7-16.9-7-6.7-2-7.8-2.7-8.2-4.9-.3-1.4-2.1-13.9-4.1-27.6-2-13.8-3.8-25.6-4-26.3-.3-.9-4.8-1.2-17.9-1.2h-17.4l-.5 3.2zm31.8 101.3c23.8 5 44.1 24.6 50.1 48.5 2.2 8.6 2.2 23.6-.1 32-7.5 28.8-33.6 49-63.2 49-12.3 0-18-1.3-29.3-6.7-16.4-7.9-28.5-22.2-34.2-40.3-3-9.6-3.1-26.2-.4-35.5 10.2-33.9 43.3-54.1 77.1-47z"/></g></svg>