<svg class="icon" height="512" viewBox="0 0 1024 1024" xmlns="http://www.w3.org/2000/svg"><path d="M518.4 192c6.4 0 6.4 0 6.4 6.4 0 0 0 6.4-6.4 6.4-38.4 19.2-51.2 32-70.4 70.4l-6.4 6.4c-6.4 0-6.4 0-6.4-6.4 0-12.8 6.4-25.6 12.8-32-6.4 0-6.4 0-6.4-6.4 0-12.8 6.4-25.6 12.8-32 6.4-6.4 12.8-6.4 25.6-12.8 0 0 6.4 0 6.4 6.4 6.4 0 19.2-6.4 32-6.4zm134.4 6.4c38.4 0 70.4 19.2 102.4 44.8 25.6 19.2 44.8 38.4 64 51.2 12.8 6.4 25.6 12.8 32 25.6 12.8 12.8 19.2 25.6 25.6 44.8 6.4 0 12.8-6.4 19.2-12.8 6.4-6.4 12.8-19.2 25.6-32h44.8c12.8 6.4 19.2 12.8 25.6 19.2 25.6 51.2 32 128 32 179.2-6.4 57.6-32 115.2-83.2 147.2-32 19.2-83.2 19.2-121.6 12.8 0 6.4-6.4 12.8-6.4 19.2-6.4 32-38.4 51.2-70.4 51.2-12.8 0-25.6 0-32-6.4-12.8-6.4-19.2-12.8-25.6-19.2L665.6 704c6.4 12.8 12.8 25.6 12.8 38.4 6.4 12.8 12.8 25.6 12.8 44.8V832c6.4 12.8 6.4 19.2 6.4 32s-6.4 25.6-12.8 32H576c-6.4 0-6.4 0-12.8-6.4-6.4 6.4-12.8 12.8-25.6 19.2-6.4 6.4-6.4 6.4-12.8 6.4l-6.4 6.4c-6.4 6.4-6.4 12.8-6.4 12.8-6.4 6.4-6.4 12.8-19.2 12.8-19.2 12.8-44.8 12.8-57.6 0-12.8-6.4-25.6-25.6-38.4-44.8 0-6.4-12.8-19.2-19.2-38.4 0-6.4-6.4-19.2 0-25.6 0-6.4 6.4-12.8 12.8-19.2h6.4-51.2v19.2c0 6.4-6.4 12.8-6.4 19.2-6.4 6.4-6.4 12.8-12.8 25.6v38.4c0 12.8-12.8 19.2-19.2 19.2-6.4 6.4-19.2 6.4-32 0-19.2 0-44.8-6.4-51.2-12.8-12.8-6.4-32-6.4-44.8-19.2-6.4-6.4-12.8-12.8-12.8-19.2V864c0-6.4 6.4-12.8 6.4-12.8-12.8 0-25.6 0-38.4-6.4-12.8-6.4-32-19.2-38.4-25.6-25.6-12.8-32-32-38.4-51.2v-19.2c0-6.4 6.4-6.4 12.8-12.8l32-32c6.4-12.8 6.4-19.2 12.8-32 0-6.4 0-12.8-6.4-25.6v-76.8C102.4 576 96 576 89.6 576c-12.8-6.4-19.2-12.8-25.6-25.6 0-6.4-6.4-12.8-6.4-25.6-12.8-6.4-12.8-19.2-12.8-32s6.4-25.6 19.2-32c6.4-12.8 19.2-19.2 25.6-25.6 12.8-6.4 19.2-12.8 25.6-12.8 6.4 0 6.4 0 6.4 6.4s-6.4 12.8-6.4 19.2c12.8 6.4 12.8 12.8 12.8 19.2v25.6l-6.4 6.4h-6.4c0-6.4-6.4-6.4-6.4-6.4v12.8c0 6.4-6.4 12.8-12.8 19.2h6.4c12.8-6.4 25.6-19.2 38.4-32 12.8-25.6 25.6-44.8 51.2-64 51.2-44.8 102.4-64 185.6-76.8 6.4-12.8 19.2-19.2 32-32s32-19.2 44.8-19.2c25.6-32 44.8-57.6 89.6-76.8 38.4-19.2 76.8-25.6 108.8-25.6zm0 32c-32 0-64 6.4-108.8 25.6-25.6 12.8-38.4 25.6-51.2 44.8H544c6.4 0 6.4 0 6.4 6.4 0 0 0 6.4-6.4 6.4-25.6 0-44.8 6.4-70.4 6.4-12.8 0-19.2 0-25.6 6.4-6.4 0-12.8 6.4-19.2 12.8-38.4 38.4-64 76.8-96 108.8-19.2 19.2-25.6 38.4-38.4 64-6.4 6.4-6.4 12.8-6.4 19.2 0 6.4 6.4 12.8 12.8 19.2 6.4 19.2 19.2 32 25.6 44.8 12.8-19.2 32-38.4 51.2-64h6.4c0-6.4 0 0 0 0-19.2 32-32 57.6-44.8 83.2-6.4 19.2-12.8 25.6-12.8 38.4 12.8 19.2 25.6 25.6 38.4 32 12.8 6.4 32 6.4 44.8-6.4 32-19.2 70.4-44.8 108.8-44.8 12.8-32 12.8-76.8 6.4-121.6-6.4-32-6.4-64 0-102.4l6.4-6.4c6.4 0 6.4 0 6.4 6.4 0 32 6.4 64 12.8 102.4 12.8 51.2 12.8 96-6.4 147.2l-6.4 6.4c-44.8 0-76.8 25.6-121.6 44.8-19.2 12.8-38.4 12.8-57.6 6.4-25.6-6.4-38.4-19.2-57.6-44.8v-6.4c0-19.2 6.4-25.6 12.8-38.4-19.2-25.6-25.6-32-38.4-57.6-12.8-12.8-19.2-25.6-19.2-38.4 0-6.4 0-19.2 12.8-38.4s19.2-44.8 38.4-64c12.8-12.8 25.6-25.6 32-38.4-51.2 6.4-89.6 25.6-128 57.6-32 25.6-51.2 64-64 102.4-12.8 25.6-12.8 51.2-12.8 96 6.4 51.2 32 115.2 64 160v6.4c-6.4 25.6-6.4 51.2-19.2 70.4v6.4l6.4 6.4c6.4 6.4 19.2 6.4 32 12.8 6.4 0 25.6 6.4 38.4 6.4h19.2c6.4 0 6.4 0 6.4-6.4v-32c12.8-19.2 12.8-19.2 19.2-32C320 838.4 320 832 320 819.2v-64c0-6.4 0-6.4 6.4-6.4 0 0 6.4 0 6.4 6.4s6.4 19.2 6.4 32c32 6.4 70.4 6.4 102.4 0v-6.4c0-12.8 6.4-19.2 12.8-25.6l6.4-6.4c6.4 0 6.4 0 6.4 6.4v64c0 6.4 0 6.4-6.4 6.4 0 0-6.4 0-6.4-6.4l-6.4-6.4c-12.8 6.4-25.6 12.8-38.4 25.6l-6.4 6.4v12.8c6.4 12.8 12.8 19.2 12.8 25.6 6.4 12.8 19.2 25.6 25.6 32 6.4 6.4 19.2 12.8 32 6.4 6.4-6.4 12.8-12.8 19.2-25.6 0 0 6.4-6.4 12.8-6.4 6.4-6.4 12.8-12.8 19.2-12.8 6.4-6.4 12.8-12.8 19.2-12.8 6.4-6.4 6.4-6.4 12.8-6.4l6.4-6.4 6.4-6.4c6.4-12.8 12.8-19.2 19.2-25.6 6.4-6.4 12.8-19.2 12.8-25.6 6.4-6.4 6.4-12.8 6.4-19.2 12.8-32 19.2-57.6 25.6-89.6-19.2-12.8-32-19.2-51.2-38.4V640c0-6.4 0-6.4 6.4-6.4h6.4c25.6 19.2 44.8 25.6 70.4 32l25.6 25.6 19.2 19.2H704c-6.4-6.4-6.4-12.8-6.4-19.2 0-12.8 6.4-25.6 6.4-38.4 6.4-12.8 0-25.6 0-38.4l-6.4 6.4c0 6.4-6.4 12.8-12.8 25.6l-6.4 6.4c-6.4 0-6.4 0-6.4-6.4s0-12.8 6.4-19.2c0-6.4 0-12.8 6.4-19.2 6.4-6.4 12.8-6.4 19.2-6.4 6.4 0 12.8 0 19.2-6.4 6.4 0 6.4 0 6.4 6.4v6.4c-6.4 0-12.8 6.4-19.2 6.4 12.8 6.4 19.2 12.8 32 12.8 57.6 19.2 115.2 38.4 172.8 6.4 38.4-25.6 64-76.8 70.4-121.6 6.4-44.8-6.4-108.8-19.2-153.6 0 0 0-6.4-6.4-6.4-6.4 25.6-19.2 44.8-51.2 51.2h-19.2c-6.4 0-6.4 0-12.8-6.4v6.4c6.4 19.2 6.4 44.8 0 64-6.4 19.2-6.4 38.4-19.2 57.6h-6.4c-6.4 0-6.4 0-6.4-6.4s6.4-32 6.4-51.2v-25.6s-6.4 0-6.4 6.4c-6.4 0-6.4 6.4-6.4 6.4-6.4 19.2-6.4 32-19.2 51.2l-6.4 6.4c-6.4 0-6.4 0-6.4-6.4 6.4-6.4 6.4-19.2 6.4-25.6 0-6.4 0-19.2 6.4-32-6.4 0-6.4 6.4-12.8 12.8s-6.4 19.2-19.2 32h-6.4c-6.4 0-6.4 0-6.4-6.4V480c6.4-12.8 6.4-25.6 12.8-38.4 6.4-12.8 12.8-19.2 32-25.6H832h-25.6c-6.4 0-6.4 0-6.4-6.4 0 0 0-6.4 6.4-6.4h6.4c0-6.4-6.4-6.4 0-12.8H800l-6.4-6.4s0-6.4 6.4-6.4 19.2-6.4 25.6-6.4c6.4 0 12.8-6.4 19.2-6.4h6.4c-6.4-6.4-6.4-12.8-12.8-25.6-6.4-6.4-12.8-6.4-25.6-19.2 0 0-6.4 0-6.4-6.4h-25.6c-6.4 0-6.4 0-6.4-6.4 0 0 0-6.4 6.4-6.4h6.4c-12.8-12.8-25.6-19.2-38.4-32-32-25.6-64-38.4-96-38.4zM672 332.8c6.4 0 6.4 0 6.4 6.4 0 0 0 6.4-6.4 6.4-32 12.8-38.4 32-44.8 57.6l-6.4 6.4s-6.4 0-6.4-6.4c0-12.8 0-32 6.4-44.8 6.4-12.8 25.6-19.2 51.2-25.6zm-140.8 0c6.4 0 6.4 0 6.4 6.4 0 0 0 6.4-6.4 6.4-12.8 6.4-25.6 12.8-44.8 19.2-12.8 19.2-19.2 25.6-19.2 51.2l-6.4 6.4s-6.4 0-6.4-6.4c-6.4-12.8-6.4-19.2-6.4-32-6.4 12.8-6.4 19.2-12.8 32-6.4 19.2-19.2 32-19.2 44.8l-6.4 6.4c-6.4 0-6.4 0-6.4-6.4 0-12.8 6.4-32 12.8-51.2 6.4-25.6 19.2-44.8 25.6-51.2 6.4-6.4 12.8-12.8 19.2-12.8H480c12.8-6.4 32-6.4 51.2-12.8zm422.4 12.8c-12.8 12.8-19.2 25.6-32 38.4-6.4 6.4-12.8 6.4-12.8 6.4h6.4c6.4 0 6.4-6.4 6.4-6.4 12.8-12.8 25.6-19.2 32-38.4zm-224 44.8c6.4 0 6.4 0 6.4 6.4v6.4s-6.4 6.4-12.8 6.4l12.8 12.8v6.4c6.4 0 19.2-6.4 25.6-6.4 6.4 0 6.4 0 6.4 6.4 0 0 0 6.4-6.4 6.4-32 6.4-57.6 25.6-83.2 51.2H672c-6.4 0-6.4 0-6.4-6.4s6.4-12.8 6.4-12.8l-12.8-12.8V448c-6.4 6.4-12.8 6.4-19.2 12.8-6.4 0-6.4 0-6.4-6.4V448l19.2-19.2c6.4-6.4 12.8-19.2 19.2-19.2 6.4-6.4 19.2-6.4 25.6-6.4 19.2-6.4 25.6-12.8 32-12.8zM64 416c6.4 0 6.4 0 6.4 6.4v6.4c-32 32-44.8 51.2-44.8 96l-6.4 6.4s-6.4 0-6.4-6.4v-32c-6.4 0-12.8-6.4-12.8-6.4v-32c6.4-6.4 12.8-12.8 25.6-19.2H32s6.4 0 6.4 6.4c0-12.8 12.8-19.2 25.6-25.6-6.4 0 0 0 0 0zm787.2 6.4zM89.6 467.2c-6.4 6.4-12.8 12.8-12.8 19.2-6.4 0-6.4 6.4-6.4 12.8s0 12.8 6.4 19.2c6.4-6.4 12.8-12.8 12.8-25.6v-25.6zm32 76.8c-6.4 0-6.4 0 0 0-12.8 0-19.2 6.4-25.6 6.4-6.4 0-6.4 0-12.8-6.4 0 6.4 6.4 6.4 12.8 6.4s12.8 0 25.6-6.4c-6.4 0-6.4 0 0 0-6.4 0 0 0 0 0zm659.2 153.6c0 6.4-6.4 6.4-12.8 6.4 6.4 6.4 12.8 0 12.8-6.4zM128 716.8c0 6.4 0 6.4 0 0-12.8 12.8-19.2 25.6-32 32l-6.4 6.4v6.4c0 12.8 12.8 25.6 19.2 38.4 6.4 6.4 19.2 12.8 32 19.2 6.4 0 12.8 6.4 19.2 6.4 6.4 0 6.4 0 12.8-6.4 0 0 0-6.4 6.4-12.8-25.6-19.2-38.4-51.2-51.2-89.6zm524.8 32c-6.4 12.8-6.4 25.6-12.8 38.4-6.4 12.8-12.8 32-25.6 44.8-6.4 12.8-19.2 25.6-25.6 32h76.8s6.4-6.4 6.4-12.8c0-12.8 0-6.4-6.4-19.2v-44.8c-6.4-12.8-6.4-19.2-12.8-38.4z"/></svg>